PathFileType	4	(X/Y/Z)	D:\TRACE\v60_Jaco2_6-2-23\JustBodyDRS_Motion2_9-v60.trc
DataRate	CameraRate	NumFrames	NumMarkers	Units	OrigDataRate	OrigDataStartFrame	OrigNumFrames
100.00	100.00	      41	9	mm	100.00	3448	      6895
Frame#	Time	front left toe			Front right toe			aft left toe			aft right toe			Arm			FL body			FR body			AL Body			AR Body			
		X1	Y1	Z1	X2	Y2	Z2	X3	Y3	Z3	X4	Y4	Z4	X5	Y5	Z5	X6	Y6	Z6	X7	Y7	Z7	X8	Y8	Z8	X9	Y9	Z9	

3448	34.470	-173.07751	91.23116	-252.46069	140.23717	15.00382	-244.09634	-240.14131	13.38493	386.03549	200.33725	93.38418	366.03827	-97.07076	1201.00366	-386.87674	-98.24024	566.11365	-375.17307	61.36204	559.19611	-378.65234	-79.88226	575.16180	569.84607	74.56216	562.44550	568.36865	
3449	34.480	-172.66885	102.43935	-249.60114	141.49736	15.39904	-243.48026	-239.28526	12.69123	386.57394	201.99049	104.17940	369.09616	-95.46822	1201.39636	-384.42575	-96.92905	566.38568	-373.69394	62.77946	559.81787	-377.33469	-78.92797	573.82440	571.23315	75.67354	561.21954	569.62244	
3450	34.490	-171.23111	112.44879	-246.30580	142.35052	15.92739	-243.41864	-238.80869	12.28815	386.92584	203.89317	114.54013	372.87634	-93.52340	1201.05054	-381.67593	-95.72800	566.78400	-372.58325	64.28088	560.31659	-376.03229	-77.50486	572.35046	572.21912	79.45235	560.65082	572.90002	
3451	34.500	-169.26056	121.37990	-242.77771	143.69496	16.71761	-242.94725	-238.10895	11.78486	387.22586	205.77219	123.37524	376.24063	-92.13551	1200.52600	-379.87997	-93.85603	567.15887	-370.80582	65.89929	560.73352	-374.37311	-75.93340	571.26282	573.89319	81.11636	559.64508	574.59973	
3452	34.510	-167.40762	129.42442	-238.97678	144.94447	17.39867	-242.34100	-235.69348	10.31784	387.70135	208.63791	131.56442	379.42148	-91.61288	1200.63660	-377.98169	-91.89951	567.47778	-369.28101	67.34486	561.06769	-372.36969	-74.25254	570.22009	575.76050	82.72991	558.63159	576.09436	
3453	34.520	-166.58044	136.23068	-235.23035	145.99252	17.87525	-241.84894	-234.95700	9.70425	388.12375	212.12193	138.16684	382.80951	-91.59416	1200.75098	-376.23096	-89.93830	567.55090	-367.76294	69.24078	561.54962	-370.74191	-72.99458	569.11334	577.44324	83.89635	557.65320	577.72974	
3454	34.530	-165.43944	140.21843	-230.94304	147.27640	18.56578	-241.38434	-233.41537	8.51020	388.65173	215.39928	142.99132	386.29651	-91.12519	1201.10974	-373.98917	-88.13326	567.77222	-366.00095	71.52917	561.88440	-369.65649	-71.23367	568.09668	578.94922	85.50277	556.89233	579.28619	
3455	34.540	-164.16962	142.08180	-226.96982	148.38326	18.98984	-240.95306	-232.38882	7.65910	389.04446	218.84274	145.08904	390.49951	-89.63417	1201.46790	-370.56476	-86.10171	567.69586	-364.68991	73.66562	562.30225	-367.96024	-69.35414	567.01080	580.61157	87.18079	556.18213	580.84430	
3456	34.550	-162.22572	141.24814	-222.48888	149.96677	19.60566	-240.28259	-231.86058	7.30335	389.23929	222.49922	143.89502	394.93253	-88.64977	1201.44202	-367.90829	-83.71850	567.52045	-363.05185	75.93808	563.01929	-366.11246	-67.94158	565.92871	582.29504	88.63392	555.43665	582.59705	
3457	34.560	-159.44704	137.62007	-218.15054	149.45807	19.82392	-240.20509	-231.03308	6.75025	389.62247	226.61073	140.43376	399.88257	-88.30331	1201.34534	-365.90030	-82.70507	568.47864	-361.70844	78.14127	563.55536	-364.31354	-65.92790	564.70557	583.87170	90.76302	554.58820	584.03845	
3458	34.570	-155.55009	132.79727	-214.22679	150.50450	20.39243	-239.88144	-230.04582	5.82479	390.09488	230.45166	135.73901	404.15955	-87.74483	1201.65784	-363.28976	-80.03394	568.41278	-359.98596	80.23920	564.31860	-362.93024	-63.84571	563.36835	585.60870	92.57009	553.73102	585.86096	
3459	34.580	-151.79115	126.92407	-210.85579	151.36821	20.84705	-239.54567	-229.20329	5.02631	390.16882	234.66873	130.26137	408.24649	-87.00932	1202.22412	-360.42419	-77.36413	568.33661	-358.06506	82.51305	564.77032	-360.52234	-61.86979	561.74280	587.18384	94.52414	552.76477	587.54578	
3460	34.590	-148.17601	120.51873	-207.33000	152.47464	21.29053	-239.07455	-228.35825	4.33885	390.49124	237.93655	123.59073	412.23529	-87.43721	1202.05322	-358.02371	-75.29187	568.62909	-356.19409	84.82793	565.46771	-358.73254	-59.67442	560.37061	589.07446	96.27765	551.79730	589.52631	
3461	34.600	-144.80264	113.25440	-203.36855	153.17671	21.71822	-238.78563	-227.50044	3.51436	391.01172	242.04617	116.68054	416.40659	-87.48931	1202.00488	-354.91690	-72.10376	568.58807	-354.16351	87.74560	566.11438	-357.10510	-57.43110	559.06628	590.84937	98.73326	550.83704	591.14758	
3462	34.610	-141.62885	105.78258	-199.37427	154.31352	22.35854	-238.29008	-226.68661	3.03350	391.25403	245.66916	109.07906	420.46243	-86.77452	1201.69055	-351.17313	-69.73607	568.74695	-352.41452	90.39758	566.73199	-355.23807	-55.16661	557.64984	593.20911	101.10919	549.87195	593.25079	
3463	34.620	-138.36089	97.14413	-194.86067	155.30504	22.72194	-237.98187	-225.34848	2.30146	391.54596	250.20164	101.20866	425.15747	-86.84847	1201.73474	-348.08588	-66.70643	568.53223	-349.93759	92.96077	567.35016	-353.02292	-52.44399	556.03918	595.13336	103.47503	549.04395	595.27197	
3464	34.630	-134.67601	88.07777	-190.17352	156.13048	23.15040	-237.62735	-224.72812	1.87786	391.88025	255.38272	92.68867	430.05051	-86.36587	1201.73975	-345.01358	-64.87267	568.98657	-348.42288	95.11759	567.80920	-350.80060	-49.90956	554.60822	597.20129	106.86093	548.05634	595.84650	
3465	34.640	-130.67917	78.29415	-185.02165	156.92874	23.47454	-237.20940	-224.25621	1.34533	392.08658	260.49152	84.00743	435.01074	-85.60667	1201.55676	-341.89917	-61.74955	568.77515	-345.87143	97.90296	568.27423	-348.41083	-47.16326	553.36670	599.58557	109.17708	546.91211	598.26422	
3466	34.650	-126.49965	68.16598	-179.58601	157.64169	23.90059	-236.73926	-223.15613	0.56482	392.56168	265.74527	75.39954	440.04352	-85.53671	1201.39392	-339.22021	-59.72091	568.65942	-343.83713	101.09521	568.84967	-346.23459	-44.75509	551.94525	601.65729	112.30430	546.26611	600.47406	
3467	34.660	-122.40990	58.01951	-174.13600	158.15576	24.18495	-236.37120	-222.10623	-0.01422	393.17310	270.39099	66.95033	444.31870	-84.76071	1200.83350	-335.82761	-56.02338	568.21313	-340.94012	103.26063	569.21185	-343.49493	-41.89226	550.37390	604.24841	114.66739	545.26947	602.97388	
3468	34.670	-118.70958	48.55527	-169.62866	159.36876	24.85213	-235.72148	-221.39742	-0.46422	393.24182	274.69016	58.40335	447.91736	-83.77470	1200.42981	-332.33713	-53.89760	568.30481	-338.74222	106.07037	569.59760	-340.90585	-38.64201	548.96954	606.57941	117.75348	544.56274	605.44458	
3469	34.680	-114.83408	39.82835	-165.88828	159.64197	25.04880	-235.49892	-220.85849	-0.89994	393.77551	278.90234	50.12276	450.95471	-83.29153	1200.16016	-328.69147	-51.33305	568.11914	-336.19821	109.33607	569.96820	-338.67770	-35.57591	547.64471	609.32001	120.86461	543.47650	607.98138	
3470	34.690	-110.92547	31.80494	-162.99692	160.72189	25.47897	-235.08705	-219.82686	-1.62934	394.06592	283.16321	42.45169	453.41852	-82.82760	1199.57202	-325.05380	-47.84332	567.78406	-333.05988	111.90876	570.14081	-335.74991	-32.56089	546.20355	612.11823	124.27521	542.62854	610.69464	
3471	34.700	-108.25880	27.25818	-162.09183	161.36374	25.58741	-234.74477	-219.26831	-1.93062	394.59280	286.36594	34.88913	455.02188	-82.81811	1199.00012	-321.63290	-44.83511	567.41205	-330.25012	115.41004	570.57404	-332.90411	-29.18749	544.49744	615.79810	127.17766	541.41541	613.69836	
3472	34.710	-109.12637	27.13010	-164.23784	162.16058	25.87708	-234.39459	-218.48384	-2.69023	394.79910	290.36383	28.11115	456.79144	-81.86431	1198.36292	-317.23956	-42.03288	567.62677	-327.20358	118.44823	571.10419	-329.92288	-26.06234	542.94543	618.11481	130.39090	540.01367	616.60986	
3473	34.720	-108.83730	27.10839	-161.79939	162.45581	26.12226	-234.15041	-218.04016	-3.05299	395.00638	293.46439	21.27295	458.94461	-81.47717	1198.03979	-313.15845	-38.88102	568.20520	-324.01382	120.92372	571.73523	-326.40030	-22.44401	541.10333	621.46582	134.32426	538.56787	619.64038	
3474	34.730	-108.46706	28.50087	-162.77853	163.37825	26.73353	-233.56300	-217.01468	-3.54800	395.41351	296.03110	13.72701	460.98499	-79.56873	1198.30042	-308.07169	-36.11841	569.39722	-320.39041	123.80766	572.99103	-323.04895	-18.77467	539.33496	625.26324	137.76913	536.92944	622.77704	
3475	34.740	-107.47964	28.78402	-161.02388	163.65363	27.31075	-233.22023	-216.43771	-3.92483	396.05774	297.94556	3.74896	462.11191	-77.23221	1199.50098	-302.64670	-33.33849	570.15594	-316.90018	126.74120	574.25403	-319.70273	-14.87089	537.65234	628.80823	141.32634	535.96228	626.19299	
3476	34.750	-106.71626	29.08042	-160.78682	163.87724	27.76795	-233.11980	-215.62712	-4.57750	396.37344	300.01822	-6.01799	460.66718	-73.60123	1201.42200	-296.43164	-30.24518	570.44720	-313.25299	129.65355	575.35168	-315.89679	-11.65857	536.51050	631.92047	145.35768	535.54645	629.72614	
3477	34.760	-107.09223	29.96201	-160.90727	164.07460	28.20868	-232.36150	-215.37500	-4.09479	396.63901	302.56607	-7.18275	461.05130	-71.00743	1203.33325	-290.94144	-27.09480	570.21979	-309.49814	133.47476	576.28522	-312.47806	-8.42461	536.82263	635.34351	148.38737	536.70428	633.66858	
3478	34.770	-106.21437	30.18991	-158.86206	165.82777	29.88155	-231.45271	-212.86971	-3.59738	397.70456	302.93469	-6.87190	464.22174	-68.10568	1204.54199	-285.42776	-23.63772	570.74420	-305.90192	136.69058	576.70691	-308.87012	-5.21140	537.38727	638.79626	151.66826	537.69379	637.16632	
3479	34.780	-103.18106	30.64595	-154.71461	169.32747	34.62255	-230.08913	-207.91652	0.56928	398.33444	302.61566	-9.48670	465.22937	-69.58685	1204.14087	-281.06674	-20.29507	572.91632	-302.41153	139.57098	578.28784	-304.88074	-2.11310	537.00476	642.63837	154.48592	536.51904	640.69751	
3480	34.790	-100.38292	31.48397	-153.55560	170.06630	39.81338	-225.63101	-201.55603	3.04037	401.66702	303.08698	-10.31397	463.75687	-68.11354	1204.29675	-278.44510	-17.06182	575.13086	-299.21234	142.67647	580.35236	-301.81100	0.93743	535.09497	645.92450	157.60193	534.76617	643.76886	
3481	34.800	-97.64095	31.25399	-149.64900	171.51868	49.92170	-222.09410	-197.21565	9.12105	404.32297	303.62888	-11.54360	465.89795	-66.25982	1204.46204	-274.73343	-14.65943	576.67035	-296.20578	145.60681	582.27191	-298.91849	3.41505	533.18542	648.71167	159.90369	532.98926	646.63788	
3482	34.810	-97.87899	31.58133	-151.10602	174.00494	60.99309	-218.91055	-189.90276	17.33271	404.36682	303.95169	-12.28797	464.87695	-62.81050	1206.04065	-270.33929	-12.46144	577.37000	-293.50620	147.70114	583.52100	-296.48767	5.79265	531.43066	651.01227	162.47354	531.86560	648.80951	
3483	34.820	-98.17139	30.95951	-150.57921	178.18085	73.89301	-216.33153	-184.05164	27.93117	406.92410	303.84177	-13.17602	465.35464	-57.99295	1208.68298	-264.99908	-10.87967	578.13074	-291.29443	149.48972	583.94189	-294.18646	8.54745	530.47394	653.36859	164.71619	530.64099	651.27118	
3484	34.830	-98.45319	31.21597	-149.81740	183.76999	87.37000	-213.22038	-179.54439	40.64009	409.89102	304.62195	-14.07914	465.77161	-54.52954	1210.77869	-259.91949	-9.14471	578.96606	-288.94293	150.95009	584.86292	-291.92160	11.13065	529.06317	655.79626	167.54956	529.21045	653.23767	
3485	34.840	-98.09579	31.46294	-149.93488	190.03638	100.74162	-209.55641	-175.59308	52.83136	414.75433	304.71951	-14.98677	465.72986	-52.49420	1211.85913	-255.18153	-7.38333	579.81879	-286.63065	152.27650	585.81793	-289.76920	13.05031	527.14740	657.75415	169.63733	527.31091	655.20532	
3486	34.850	-98.41628	32.08892	-149.54375	196.28061	113.95302	-204.60118	-171.06918	65.17121	420.91846	304.95184	-15.70478	465.99112	-52.23867	1211.94067	-250.89705	-6.40829	581.08099	-284.52847	153.90901	586.45697	-287.61316	15.26979	525.24701	659.75507	171.72275	524.91260	657.10913	
3487	34.860	-98.58315	32.21021	-149.41354	202.17320	126.23496	-199.45653	-166.72383	76.62657	426.73318	304.64847	-16.01096	466.39246	-51.37856	1212.05920	-247.38350	-5.24361	582.06592	-282.11017	155.01123	587.15479	-285.56024	17.20053	523.49365	661.77948	173.68367	522.82098	658.81482	
3488	34.870	-99.00212	32.55842	-149.00996	207.56670	138.02200	-193.96059	-161.85800	86.62367	432.36407	304.52112	-16.84287	466.73642	-49.69035	1212.61694	-244.20555	-4.43576	582.86835	-279.97330	155.65939	587.26355	-283.30533	18.84534	521.95471	663.82977	175.69127	520.79236	660.72382	
